<svg width="80" height="80" viewBox="0 0 80 80" xmlns="http://www.w3.org/2000/svg">
  <!-- AI Neural Network with Indian Tricolor -->
  <defs>
    <!-- Gradient for AI nodes -->
    <linearGradient id="aiGradient" x1="0%" y1="0%" x2="100%" y2="100%">
      <stop offset="0%" style="stop-color:#FF9933;stop-opacity:1" />
      <stop offset="50%" style="stop-color:#FFFFFF;stop-opacity:1" />
      <stop offset="100%" style="stop-color:#138808;stop-opacity:1" />
    </linearGradient>
    
    <!-- Glow effect -->
    <filter id="glow">
      <feGaussianBlur stdDeviation="3" result="coloredBlur"/>
      <feMerge> 
        <feMergeNode in="coloredBlur"/>
        <feMergeNode in="SourceGraphic"/>
      </feMerge>
    </filter>
  </defs>
  
  <!-- AI Network Nodes -->
  <!-- Central AI brain node -->
  <circle cx="40" cy="40" r="12" fill="#FF9933" filter="url(#glow)"/>
  <circle cx="40" cy="40" r="6" fill="#FFFFFF"/>
  <circle cx="40" cy="40" r="3" fill="#138808"/>
  
  <!-- Neural network connections -->
  <g stroke-width="2.5" fill="none" opacity="0.8">
    <!-- Top connections - Saffron -->
    <line x1="40" y1="40" x2="20" y2="20" stroke="#FF9933"/>
    <line x1="40" y1="40" x2="60" y2="20" stroke="#FF9933"/>
    <line x1="40" y1="40" x2="40" y2="15" stroke="#FF9933"/>
    <line x1="20" y1="20" x2="60" y2="20" stroke="#FF9933"/>
    <line x1="20" y1="20" x2="40" y2="15" stroke="#FF9933"/>
    <line x1="60" y1="20" x2="40" y2="15" stroke="#FF9933"/>
    
    <!-- Middle connections - White/Gray -->
    <line x1="40" y1="40" x2="15" y2="40" stroke="#6B7280"/>
    <line x1="40" y1="40" x2="65" y2="40" stroke="#6B7280"/>
    
    <!-- Bottom connections - Green -->
    <line x1="40" y1="40" x2="20" y2="60" stroke="#138808"/>
    <line x1="40" y1="40" x2="60" y2="60" stroke="#138808"/>
    <line x1="40" y1="40" x2="40" y2="65" stroke="#138808"/>
    <line x1="20" y1="60" x2="60" y2="60" stroke="#138808"/>
    <line x1="20" y1="60" x2="40" y2="65" stroke="#138808"/>
    <line x1="60" y1="60" x2="40" y2="65" stroke="#138808"/>
  </g>
  
  <!-- Network nodes -->
  <g>
    <!-- Top layer nodes - Saffron -->
    <circle cx="20" cy="20" r="8" fill="#FF9933"/>
    <circle cx="40" cy="15" r="6" fill="#FF9933"/>
    <circle cx="60" cy="20" r="8" fill="#FF9933"/>
    
    <!-- Middle layer nodes -->
    <circle cx="15" cy="40" r="6" fill="#6B7280"/>
    <circle cx="65" cy="40" r="6" fill="#6B7280"/>
    
    <!-- Bottom layer nodes - Green -->
    <circle cx="20" cy="60" r="8" fill="#138808"/>
    <circle cx="40" cy="65" r="6" fill="#138808"/>
    <circle cx="60" cy="60" r="8" fill="#138808"/>
  </g>
  
  <!-- AI Circuit patterns -->
  <g stroke="#4B5563" stroke-width="1" fill="none" opacity="0.5">
    <path d="M5 5 L15 5 L15 15 M75 5 L65 5 L65 15 M5 75 L15 75 L15 65 M75 75 L65 75 L65 65"/>
    <circle cx="5" cy="5" r="2" fill="#4B5563"/>
    <circle cx="75" cy="5" r="2" fill="#4B5563"/>
    <circle cx="5" cy="75" r="2" fill="#4B5563"/>
    <circle cx="75" cy="75" r="2" fill="#4B5563"/>
    
    <!-- Additional circuit lines -->
    <path d="M10 10 L10 20 M70 10 L70 20 M10 70 L10 60 M70 70 L70 60"/>
    <path d="M10 10 L20 10 M70 10 L60 10 M10 70 L20 70 M70 70 L60 70"/>
  </g>
  
  <!-- Additional decorative nodes -->
  <g opacity="0.6">
    <circle cx="25" cy="35" r="2" fill="#FF9933"/>
    <circle cx="55" cy="35" r="2" fill="#138808"/>
    <circle cx="25" cy="45" r="2" fill="#138808"/>
    <circle cx="55" cy="45" r="2" fill="#FF9933"/>
    <circle cx="35" cy="25" r="2" fill="#6B7280"/>
    <circle cx="45" cy="25" r="2" fill="#6B7280"/>
    <circle cx="35" cy="55" r="2" fill="#6B7280"/>
    <circle cx="45" cy="55" r="2" fill="#6B7280"/>
  </g>
</svg>